<?xml version="1.0" encoding="utf-8"?>
<!-- Generator: Adobe Illustrator 23.0.3, SVG Export Plug-In . SVG Version: 6.00 Build 0)  -->
<svg version="1.1" id="Layer_1" xmlns="http://www.w3.org/2000/svg" xmlns:xlink="http://www.w3.org/1999/xlink" x="0px" y="0px"
	 viewBox="0 0 64 64" style="enable-background:new 0 0 64 64;" xml:space="preserve">
<g>
	<path d="M32,10.1c-13.3,0-24.1,10.8-24.1,24.1c0,13.3,10.8,24.1,24.1,24.1c13.3,0,24.1-10.8,24.1-24.1C56.1,20.9,45.3,10.1,32,10.1
		z M32,55.7c-11.9,0-21.5-9.6-21.5-21.5c0-11.9,9.6-21.5,21.5-21.5s21.5,9.6,21.5,21.5C53.5,46.1,43.9,55.7,32,55.7z"/>
	<path d="M19.5,8.3c1.1-0.5,0.9-1.3,0.8-1.7l-0.1-0.2c-0.5-0.9-1.3-0.9-1.7-0.7C7.8,10.3,0.3,20.7,0,33C0,33.8,0.5,34,0.8,34h0.7
		c0.3-0.1,0.8-0.3,0.9-1.3c0-0.1,0-0.1,0-0.2c0.7-10.8,7.5-20,17-24.1C19.4,8.4,19.5,8.4,19.5,8.3z"/>
	<path d="M45.9,5.8c-1.2-0.5-1.8,0.1-2,0.4l-0.3,0.5c-0.1,0.3-0.2,1.1,1.1,1.7c0,0,0,0,0.1,0c9.4,4.2,16.2,13.3,16.8,24.1
		c0,0,0,0,0,0s0,1.4,1.1,1.4h0.3c0.3,0,0.9-0.2,0.9-1.1C63.7,20.8,56.3,10.5,45.9,5.8z"/>
	<path d="M43,30.4c-0.7-1.1-2.1-2.5-3.2-3.5c-0.2-0.2-0.5-0.2-0.6-0.1c-0.3,0.2-0.2,0.5-0.2,0.5l0,0c0.6,1.1,1,2.4,1,4.1
		c0,0.9,0,1.5,0,1.6c0,0.1,0,0.3-0.1,0.4c-0.1,0.4-0.6,1.5-1.3,1.2c-0.7-0.3-0.8-1.4-0.8-1.4s0,0,0,0c-0.5-6.4-3.5-10.1-5.7-12.1
		c0,0,0,0,0,0c0,0,0,0,0,0c-0.9-0.8-1.7-1.3-2.2-1.6c-0.1,0-0.1-0.1-0.2-0.1c-0.1-0.1-0.2-0.1-0.3-0.2c0,0,0,0,0,0
		c-0.1,0-0.1-0.1-0.2-0.1c-0.4-0.1-0.6,0.1-0.7,0.3c0,0-0.1,0.5,0.2,1.5c0,0,0,0,0,0c0.9,2.5,2,6.8,0.9,11.5
		c-0.2,0.8-0.9,1.4-1.2,1.4c-1,0.1-1.5-0.7-1.7-1.1c0-0.1-0.1-0.2-0.1-0.3c0,0,0,0,0,0c-0.6-2.2,0.1-5.5,0.7-7.3
		c0.4-1.4-1.3,0-1.3,0l0,0l0,0c-0.3,0.3-0.7,0.6-1.1,0.9l0,0c-0.5,0.4-1.1,1-1.7,1.7c-0.3,0.4-5,5.4-3.5,12.4
		c1.4,5.6,6.4,9.8,12.4,9.8c6.5,0,11.9-4.9,12.7-11.2c0-0.3,0.1-0.5,0.1-0.8c0-0.1,0-0.2,0-0.2C44.9,34.5,43.9,32.1,43,30.4z"/>
</g>
</svg>
