<?xml version="1.0" encoding="utf-8"?>
<!-- Generator: Adobe Illustrator 23.0.3, SVG Export Plug-In . SVG Version: 6.00 Build 0)  -->
<svg version="1.1" id="Layer_1" xmlns="http://www.w3.org/2000/svg" xmlns:xlink="http://www.w3.org/1999/xlink" x="0px" y="0px"
	 viewBox="0 0 52 52" style="enable-background:new 0 0 52 52;" xml:space="preserve">
<g>
	<path d="M48.7,27.7l-22-19.1c-0.4-0.3-0.9-0.3-1.3,0L17,15.8v-3.6c0-0.6-0.4-1-1-1c-0.6,0-1,0.4-1,1v5.3L3.3,27.7
		c-0.4,0.4-0.5,1-0.1,1.4c0.4,0.4,1,0.5,1.4,0.1l5.4-4.6v18.1c0,0.6,0.4,1,1,1h30c0.5,0,1-0.4,1-1V24.6l5.3,4.6
		c0.2,0.2,0.4,0.2,0.7,0.2c0.3,0,0.5-0.1,0.8-0.3C49.1,28.7,49.1,28.1,48.7,27.7z"/>
</g>
</svg>
