<?xml version="1.0" ?><!DOCTYPE svg  PUBLIC '-//W3C//DTD SVG 1.0//EN'  'http://www.w3.org/TR/2001/REC-SVG-20010904/DTD/svg10.dtd'><svg enable-background="new 0 0 24 24" id="Layer_1" version="1.0" viewBox="0 0 24 24" xml:space="preserve" xmlns="http://www.w3.org/2000/svg" xmlns:xlink="http://www.w3.org/1999/xlink"><path d="M20,14.5c0,0-2.3,5.5-8,5.5s-8-5.5-8-5.5s4.1,1,7.9,1S20,14.5,20,14.5z"/><path d="M21.3,8.5C17.1,7.2,13.8,4,12,4c-1.8,0-5.1,3.2-9.3,4.5c-0.7,0.2-1,1-0.6,1.6C3,11.3,4,11.4,4,12.8c0,0,4,1,8,1s8-1,8-1  c0-1.4,1-1.5,1.8-2.8C22.2,9.5,21.9,8.7,21.3,8.5z M12,12c-1.1,0-2-1.9-2-3c0,0,0.9-1,2-1s2,1,2,1C14,10.1,13.1,12,12,12z"/></svg>