<?xml version="1.0" ?><svg style="enable-background:new 0 0 32 32;" version="1.1" viewBox="0 0 32 32" xml:space="preserve" xmlns="http://www.w3.org/2000/svg" xmlns:xlink="http://www.w3.org/1999/xlink"><g id="Guides"/><g id="_x32_0"/><g id="_x31_9"/><g id="_x31_8"/><g id="_x31_7"/><g id="_x31_6"/><g id="_x31_5"/><g id="_x31_4"/><g id="_x31_3"/><g id="_x31_2"/><g id="_x31_1"/><g id="_x31_0"/><g id="_x30_9"/><g id="_x30_8"/><g id="_x30_7"/><g id="_x30_6"/><g id="_x30_5"/><g id="_x30_4"/><g id="_x30_3"/><g id="_x30_2"/><g id="_x30_1"><g><path d="M29.9987793,7.5200195c0-1.4785156-0.5776367-2.8637695-1.6210938-3.8950195    c-1.0400391-1.0463867-2.4262695-1.6225586-3.9038086-1.6225586s-2.8637695,0.5761719-3.902832,1.6210938L3.6237793,20.5712891    c-1.0463867,1.0400391-1.6225586,2.4262695-1.6225586,3.9038086S2.5773926,27.3388672,3.619873,28.375    c1.0400391,1.0458984,2.4262695,1.6225586,3.9033203,1.6225586c0.0004883,0,0.0004883,0,0.0004883,0    c1.4775391,0,2.8637695-0.5761719,3.9018555-1.6196289l4.3818359-4.381958    c0.0084229-0.0078735,0.0201416-0.0107422,0.0283203-0.0189209l8.1401367-8.1401367    c0.0084229-0.0084229,0.0113525-0.0203857,0.0194092-0.0290527l4.3765869-4.376709    C29.4211426,10.3935547,29.9987793,9.0048828,29.9987793,7.5200195z M15.1237183,21.8510132l-4.9706421-4.9711304    l6.7255859-6.7255859l4.9710083,4.97052L15.1237183,21.8510132z M10.0100098,26.9648438    c-0.6621094,0.6660156-1.5454102,1.0327148-2.4863281,1.0327148s-1.8237305-0.3666992-2.4897461-1.0366211    c-0.6660156-0.6621094-1.0327148-1.5449219-1.0327148-2.4858398s0.3666992-1.8237305,1.0341797-2.4868164l3.6989136-3.6989746    l4.9754028,4.975769L10.0100098,26.9648438z M26.9606934,10.0136719l-3.6970215,3.6970825l-4.975769-4.9754028    l3.7001343-3.7001953c0.6621094-0.6660156,1.5449219-1.0327148,2.4858398-1.0327148s1.8237305,0.3666992,2.4916992,1.0390625    c0.6665039,0.6582031,1.0332031,1.5385742,1.0332031,2.4785156C27.9987793,8.4663086,27.6320801,9.3500977,26.9606934,10.0136719z    "/><path d="M16.2888184,12.2900391c-0.090332,0.0996094-0.1601563,0.199707-0.2104492,0.3295898    c-0.0498047,0.1201172-0.0795898,0.25-0.0795898,0.3803711c0,0.2597656,0.1098633,0.5200195,0.2900391,0.7099609    c0.0898438,0.0898438,0.199707,0.159668,0.3295898,0.2099609C16.7385254,13.9697266,16.8684082,14,16.9987793,14    c0.2597656,0,0.5200195-0.1103516,0.7099609-0.2900391C17.8884277,13.5200195,17.9987793,13.2597656,17.9987793,13    c0-0.2602539-0.1103516-0.5200195-0.2900391-0.7099609c-0.2802734-0.2802734-0.7202148-0.3603516-1.090332-0.2104492    C16.4885254,12.1298828,16.3786621,12.199707,16.2888184,12.2900391z"/><path d="M17.2888184,15.2900391C17.1086426,15.4799805,16.9987793,15.7397461,16.9987793,16    c0,0.2597656,0.1098633,0.5200195,0.2900391,0.7099609C17.4787598,16.8896484,17.7385254,17,17.9987793,17    c0.2597656,0,0.5200195-0.1103516,0.7099609-0.2900391C18.8884277,16.5200195,18.9987793,16.2597656,18.9987793,16    c0-0.2602539-0.1103516-0.5200195-0.2900391-0.7099609C18.3283691,14.9199219,17.6584473,14.9199219,17.2888184,15.2900391z"/><path d="M14.7087402,16.7099609C14.8884277,16.5200195,14.9987793,16.2597656,14.9987793,16    c0-0.2602539-0.1103516-0.5200195-0.2900391-0.7099609c-0.2802734-0.2802734-0.7202148-0.3603516-1.090332-0.2104492    c-0.1298828,0.050293-0.2299805,0.1201172-0.3295898,0.2104492C13.1086426,15.4799805,12.9987793,15.7397461,12.9987793,16    c0,0.2597656,0.1098633,0.5200195,0.2900391,0.7099609c0.0996094,0.0898438,0.199707,0.159668,0.3295898,0.2099609    C13.7385254,16.9697266,13.8684082,17,13.9987793,17C14.2687988,17,14.5187988,16.8896484,14.7087402,16.7099609z"/><path d="M14.2888184,18.2900391C14.1086426,18.4799805,13.9987793,18.7397461,13.9987793,19    c0,0.1298828,0.0297852,0.2597656,0.0795898,0.3798828c0.050293,0.1201172,0.1201172,0.2299805,0.2104492,0.3300781    C14.4787598,19.8896484,14.7385254,20,14.9987793,20c0.2597656,0,0.5200195-0.1103516,0.7099609-0.2900391    C15.8884277,19.5200195,15.9987793,19.2597656,15.9987793,19c0-0.2602539-0.1103516-0.5200195-0.2900391-0.7099609    C15.338623,17.9199219,14.6584473,17.9199219,14.2888184,18.2900391z"/></g></g></svg>