<?xml version="1.0" encoding="utf-8"?>
<!-- Generator: Adobe Illustrator 23.0.3, SVG Export Plug-In . SVG Version: 6.00 Build 0)  -->
<svg version="1.1" id="Layer_1" xmlns="http://www.w3.org/2000/svg" xmlns:xlink="http://www.w3.org/1999/xlink" x="0px" y="0px"
	 viewBox="0 0 48 48" style="enable-background:new 0 0 48 48;" xml:space="preserve">
<style type="text/css">
	.st0{fill:none;}
	.st1{fill:#FFFFFF;}
</style>
<path class="st0" d="M0,0h48v48H0V0z"/>
<path class="st1" d="M28,7.6c2,0,3.6-1.6,3.6-3.6S30,0.4,28,0.4c-2,0-3.6,1.6-3.6,3.6S26,7.6,28,7.6z M28.2,20H38v-3.6h-7.3l-4-6.7
	c-0.6-1-1.7-1.7-2.9-1.7c-0.3,0-0.7,0.1-1,0.1L12,11.6V22h3.6v-7.3l4.2-1.3L12,44h3.6l5.7-16.2L26,34v10h3.6V31.2l-5-9.1l1.5-5.7
	C26.1,16.4,28.2,20,28.2,20z"/>
</svg>
