<?xml version="1.0" encoding="utf-8"?>
<!-- Generator: Adobe Illustrator 23.0.3, SVG Export Plug-In . SVG Version: 6.00 Build 0)  -->
<svg version="1.1" id="Layer_1" xmlns:sketch="http://www.bohemiancoding.com/sketch/ns"
	 xmlns="http://www.w3.org/2000/svg" xmlns:xlink="http://www.w3.org/1999/xlink" x="0px" y="0px" viewBox="0 0 32 32"
	 style="enable-background:new 0 0 32 32;" xml:space="preserve">
<style type="text/css">
	.st0{fill-rule:evenodd;clip-rule:evenodd;fill:#FFFFFF;}
</style>
<title></title>
<desc></desc>
<g id="Page-1">
	<g id="icon-24-key">
		<path id="key" class="st0" d="M18.5,19.5L14,24h-3v3H8v3H3v-5l10.5-10.5c-0.3-0.9-0.5-1.9-0.5-3C13,6.8,16.8,3,21.5,3
			S30,6.8,30,11.5S26.2,20,21.5,20C20.5,20,19.5,19.8,18.5,19.5L18.5,19.5L18.5,19.5z M27,9c0-1.7-1.3-3-3-3s-3,1.3-3,3s1.3,3,3,3
			S27,10.7,27,9L27,9z"/>
	</g>
</g>
</svg>
