<?xml version="1.0" encoding="utf-8"?>
<!-- Generator: Adobe Illustrator 23.0.3, SVG Export Plug-In . SVG Version: 6.00 Build 0)  -->
<svg version="1.1" id="Layer_1" xmlns="http://www.w3.org/2000/svg" xmlns:xlink="http://www.w3.org/1999/xlink" x="0px" y="0px"
	 viewBox="0 0 500 500" style="enable-background:new 0 0 500 500;" xml:space="preserve">
<style type="text/css">
	.st0{fill-rule:evenodd;clip-rule:evenodd;fill:#FFFFFF;}
</style>
<path class="st0" d="M68.3,431.7c0,20.1,16.3,36.3,36.3,36.3h290.7c20.1,0,36.3-16.3,36.3-36.3V250c0-20.1-16.3-36.3-36.3-36.3
	H177.3v-63.6c0-40.2,32.5-72.7,72.7-72.7s72.7,32.5,72.7,72.7v4.5c0,12.5,10.2,22.7,22.7,22.7c12.5,0,22.7-10.2,22.7-22.7v-4.5
	C368.1,84.8,315.2,32,250,32c-65.2,0-118.1,52.9-118.1,118.1v63.6h-27.3c-20.1,0-36.3,16.3-36.3,36.3L68.3,431.7L68.3,431.7z
	 M213.7,313.6c0-20.1,16.3-36.3,36.3-36.3s36.3,16.3,36.3,36.3c0,12.8-6.6,24.1-16.6,30.5c0,0,3.5,21.4,7.5,46.7
	c0,7.5-6.1,13.6-13.6,13.6h-27.3c-7.5,0-13.6-6.1-13.6-13.6l7.5-46.7C220.3,337.7,213.7,326.4,213.7,313.6z"/>
</svg>
