<?xml version="1.0" encoding="utf-8"?>
<!-- Generator: Adobe Illustrator 23.0.3, SVG Export Plug-In . SVG Version: 6.00 Build 0)  -->
<svg version="1.1" id="Layer_1" xmlns="http://www.w3.org/2000/svg" xmlns:xlink="http://www.w3.org/1999/xlink" x="0px" y="0px"
	 viewBox="0 0 32 32" style="enable-background:new 0 0 32 32;" xml:space="preserve">
<g>
	<path d="M25.4,4.3c0,0-1.3,1.3-2.2,2.2c-4.7-3.4-11.3-3-15.5,1.2c-2.5,2.5-3.6,5.7-3.5,9h4c-0.1-2.2,0.6-4.5,2.3-6.2
		c2.7-2.7,6.7-3,9.8-1.2c-1,1-2.2,2.2-2.2,2.2c-0.8,1,0.1,1.6,0.6,1.6l5.6,0c0.3,0,0.5,0,0.5,0s0.2,0,0.5,0h1.1
		c0.3,0,0.5-0.2,0.5-0.5V4.9C27,4.2,26.2,3.5,25.4,4.3z"/>
	<path d="M6.6,27.7c0,0,1.3-1.3,2.2-2.2c4.7,3.4,11.3,3,15.5-1.2c2.5-2.5,3.6-5.7,3.5-9h-4c0.1,2.2-0.6,4.5-2.3,6.2
		c-2.7,2.7-6.7,3-9.8,1.2c1-1,2.2-2.2,2.2-2.2c0.8-1-0.1-1.6-0.6-1.6l-5.6,0c-0.3,0-0.5,0-0.5,0s-0.2,0-0.5,0H5.6
		c-0.3,0-0.5,0.2-0.5,0.5v7.7C5,27.8,5.8,28.5,6.6,27.7z"/>
</g>
</svg>
